<?xml version="1.0" encoding="UTF-8"?>
<!DOCTYPE svg PUBLIC "-//W3C//DTD SVG 1.1//EN" "http://www.w3.org/Graphics/SVG/1.1/DTD/svg11.dtd">
<!-- Creator: CorelDRAW 2026 -->
<svg xmlns="http://www.w3.org/2000/svg" xml:space="preserve" width="78.1465mm" height="103.487mm" version="1.1" style="shape-rendering:geometricPrecision; text-rendering:geometricPrecision; image-rendering:optimizeQuality; fill-rule:evenodd; clip-rule:evenodd"
viewBox="0 0 1018.56 1348.85"
 xmlns:xlink="http://www.w3.org/1999/xlink"
 xmlns:xodm="http://www.corel.com/coreldraw/odm/2003">
 <defs>
  <style type="text/css">
   <![CDATA[
    .fil0 {fill:#D86902}
    .fil1 {fill:#F4F3F3}
   ]]>
  </style>
 </defs>
 <g id="Camada_x0020_1">
  <metadata id="CorelCorpID_0Corel-Layer"/>
  <g id="_2359291154256">
   <path class="fil0" d="M1.35 725.89c33.15,34 74.13,246.09 79.7,293.76 11.14,95.22 7.58,170.92 8.81,265.17 0.54,41.43 30.13,73.65 75.88,59 39.06,-12.51 41.33,-54.28 43.91,-99.76 5.59,-98.85 -7.15,-169.1 -14.48,-263.24l53.74 -0.02c19.62,24.88 12.63,104.19 13.42,143.6l28.86 0.22c1.32,-16.89 -11.12,-182.82 28.16,-139.59 15.35,35.35 -0.06,95.62 5.17,137.46l26.48 1.85c2.6,-36.6 -3.5,-118.02 4.2,-142.68 13.08,-2.52 11.34,-4.99 24.51,3.07l1.93 138.43 21.09 0.55c2.83,-35.21 -2.83,-117.32 7.39,-142.31l18.69 -1.47c12.99,22.23 6.27,111.76 6.39,142.44l27.37 2.72c1.75,-37.48 -5.5,-114.11 4.26,-142.06 46.77,-9.67 20.22,49.19 27.63,139.8l27.81 1.91c1.66,-34.53 -3.57,-119.45 4.28,-142.08l24.72 -1.57c7.87,23.71 4.12,109.67 4.98,139.6 14.78,5.17 11.62,5.45 25.29,-0.5 2.92,-36.34 -4.37,-108.62 4.73,-137.9l21.85 -2.31c10.22,20.67 4.97,114.65 5.66,143.13l28.57 2.49c0.06,-34.81 -8.45,-121.81 7.22,-143.79l18.43 -0.76c13.48,27.63 5.42,106.63 5.88,141.85l27.45 1.54c2.7,-93.93 -15.52,-147.2 27.71,-143.7 10.47,23.9 3.41,106.72 4.78,141.76 69.91,10.13 51.4,-92.25 51.83,-173.53 0.51,-98.33 -11.05,-82.04 -149.87,-82.82 -87.99,-0.5 -411.62,4.61 -467.91,-1.11 -8.39,-34.77 -45.97,-139.22 -46.63,-159.09 -17.47,-18.06 -12.11,-39.47 -56.14,-62.34 -56.13,-4.84 -69.89,28.62 -63.74,82.27zm50.58 -0.46c-13.41,0 -24.28,-10.87 -24.28,-24.28 0,-13.41 10.87,-24.28 24.28,-24.28 13.41,0 24.28,10.87 24.28,24.28 0,13.41 -10.87,24.28 -24.28,24.28z"/>
   <path class="fil0" d="M521.43 734.83c134.77,6.54 220.07,-13.87 303.86,70.63 158.91,160.26 51.84,424.09 -175.61,423.54 -53.11,-0.13 -348.48,-4.4 -375.47,1.61 1.14,64.3 -1.82,69.89 -22.4,115.69 75.84,3.3 425.87,5.49 483.81,-7.26 131.46,-28.94 224.89,-121.61 263.67,-238.02 66.4,-199.33 -44.98,-413.2 -240.34,-468.46 -72.24,-20.43 -162.24,-17.15 -238.7,-15.77l1.19 118.04z"/>
   <path class="fil1" d="M140.99 122.83c87.55,-8.05 210.34,-1.6 301.67,-1.4 120.27,0.26 276.42,-22.84 337.95,121.77 15.37,36.11 23.87,82.75 16.55,126.5 -16.29,97.37 -64.82,132.62 -137.31,168.18 30.02,3.59 56.21,5.86 84.86,12.75 24.43,5.87 57.95,19.8 79.83,21.84 21.93,-37.25 42.43,-40.38 72.9,-120.57 57.03,-150.06 -10.91,-332.79 -141.31,-404.97 -108.2,-59.89 -208.28,-45.46 -341.06,-45.22 -69.64,0.13 -342.82,-3.29 -387.41,1.06 -13.12,6.34 -7.37,61.1 -7.45,86.39 -0.2,68.83 -2.97,221.06 1.56,273.82l116.22 2.64 2.99 -242.77zm-75.89 520.79c44.03,22.87 38.67,44.28 56.14,62.34 14.3,-11.9 38.05,-42.41 55.52,-46.79 84.44,-21.18 -0.46,61.02 179.48,-123.07l150.93 -152.53c61.27,-60.9 47.62,-44.91 14.2,-87.98 -52.78,-68.03 -52.61,-52.32 -159.26,53.29 -11.15,11.04 -19.49,17.61 -30.27,29.54l-266.75 265.2z"/>
  </g>
 </g>
</svg>